<?xml version="1.0" standalone="no"?>
<!DOCTYPE svg PUBLIC "-//W3C//DTD SVG 20010904//EN"
 "http://www.w3.org/TR/2001/REC-SVG-20010904/DTD/svg10.dtd">
<svg version="1.0" xmlns="http://www.w3.org/2000/svg"
 width="1024.000000pt" height="1024.000000pt" viewBox="0 0 1024.000000 1024.000000"
 preserveAspectRatio="xMidYMid meet">
<metadata>
Created by potrace 1.11, written by Peter Selinger 2001-2013
</metadata>
<g transform="translate(0.000000,1024.000000) scale(0.100000,-0.100000)"
fill="#000000" stroke="none">
<path d="M2848 9465 c-2 -1 -39 -5 -83 -9 -91 -7 -113 -10 -210 -32 -38 -9
-77 -17 -86 -19 -39 -8 -194 -67 -255 -98 -174 -86 -286 -168 -439 -321 -129
-130 -207 -236 -287 -393 -90 -178 -141 -354 -164 -568 -10 -91 -10 -5683 0
-5795 49 -563 374 -1037 885 -1294 123 -62 333 -127 459 -141 26 -3 58 -9 72
-12 38 -10 5768 -12 5829 -2 172 27 319 170 348 339 3 19 6 118 7 220 0 152
-3 195 -18 240 -19 58 -64 130 -121 195 -19 22 -35 51 -36 65 0 14 -2 34 -5
45 -12 60 -19 278 -19 570 0 412 12 581 42 599 38 21 91 78 111 120 49 98 48
-5 47 3056 -1 2766 -2 2877 -20 2940 -46 161 -162 262 -330 288 -50 8 -5718
15 -5727 7z m2742 -959 c56 -6 74 -9 170 -27 250 -47 546 -210 724 -400 112
-118 201 -271 234 -404 20 -77 24 -111 27 -231 2 -100 -2 -137 -21 -215 -24
-96 -29 -107 -85 -219 -67 -132 -183 -267 -321 -370 -43 -33 -85 -63 -93 -68
-13 -7 -16 -34 -19 -154 -2 -134 -4 -149 -29 -200 -31 -64 -82 -108 -152 -131
-44 -16 -111 -17 -640 -16 -564 0 -592 1 -642 20 -63 24 -121 82 -146 146 -14
36 -19 78 -20 186 -2 126 -4 140 -22 153 -11 7 -24 17 -30 21 -5 4 -29 21 -53
36 -72 47 -218 201 -278 293 -81 124 -121 223 -150 373 -20 99 -5 282 31 407
101 349 502 679 933 770 180 38 406 49 582 30z m-1854 -2505 c5 -5 54 -28 109
-51 99 -42 136 -58 230 -100 28 -12 86 -38 130 -57 145 -63 240 -105 270 -118
17 -7 107 -47 200 -88 94 -41 190 -84 215 -95 228 -102 488 -214 500 -214 12
-1 422 175 645 277 17 7 197 86 400 175 204 89 430 188 503 221 74 32 143 59
154 59 40 0 97 -23 121 -49 39 -42 139 -288 138 -339 -1 -92 -27 -112 -276
-216 -77 -32 -158 -67 -180 -77 -22 -10 -85 -36 -140 -59 -55 -23 -122 -52
-150 -64 -27 -13 -155 -67 -283 -122 -130 -55 -227 -101 -220 -105 7 -3 279
-120 603 -259 325 -139 598 -259 607 -267 23 -20 42 -80 39 -120 -2 -42 -107
-291 -135 -321 -30 -34 -69 -52 -111 -52 -32 0 -115 32 -310 120 -273 122
-1395 610 -1403 610 -11 0 -248 -101 -400 -171 -35 -16 -65 -29 -67 -29 -3 0
-28 -11 -57 -24 -71 -32 -291 -129 -763 -335 -247 -109 -401 -171 -422 -171
-41 0 -92 21 -115 46 -9 11 -44 83 -78 162 -67 157 -72 195 -36 258 16 28 36
42 91 66 39 16 88 38 110 47 22 10 264 114 538 231 306 131 494 216 485 220
-7 4 -152 67 -323 140 -170 72 -334 143 -363 156 -29 13 -55 24 -57 24 -2 0
-28 11 -57 24 -29 13 -120 52 -203 87 -82 34 -163 70 -180 79 -42 23 -66 74
-62 130 4 50 108 304 136 333 34 35 143 60 167 38z m4049 -3596 l0 -540 -2485
0 -2485 0 -59 23 c-218 85 -343 257 -350 486 -5 147 33 270 112 367 80 98 213
177 326 194 22 3 41 7 42 8 1 1 1104 2 2451 2 l2448 0 0 -540z"/>
<path d="M4747 7683 c-181 -67 -229 -329 -83 -456 79 -68 203 -86 298 -43 104
47 158 137 154 256 -5 108 -52 187 -141 232 -56 29 -164 34 -228 11z"/>
<path d="M5836 7685 c-162 -58 -224 -280 -117 -421 54 -71 114 -99 216 -99
115 0 188 40 238 130 77 139 13 331 -129 384 -63 24 -150 27 -208 6z"/>
</g>
</svg>
